<mxfile host="app.diagrams.net" modified="2022-09-07T07:19:16.043Z" agent="5.0 (Windows NT 10.0; Win64; x64) AppleWebKit/537.36 (KHTML, like Gecko) Chrome/103.0.5060.114 Safari/537.36 Edg/103.0.1264.49" etag="FNkxkcOsOCGFe6YgO_R7" version="20.2.8" type="github">
  <diagram id="cOpHWH9Mn6Km4bEP1Nwy" name="第 1 页">
    <mxGraphModel dx="1422" dy="794" grid="1" gridSize="10" guides="1" tooltips="1" connect="1" arrows="1" fold="1" page="1" pageScale="1" pageWidth="827" pageHeight="1169" math="0" shadow="0">
      <root>
        <mxCell id="0" />
        <mxCell id="1" parent="0" />
        <mxCell id="beh4pt77fmSrPcNmpQ1O-11" style="edgeStyle=orthogonalEdgeStyle;rounded=0;orthogonalLoop=1;jettySize=auto;html=1;entryX=0.5;entryY=0;entryDx=0;entryDy=0;" edge="1" parent="1" source="beh4pt77fmSrPcNmpQ1O-1" target="beh4pt77fmSrPcNmpQ1O-6">
          <mxGeometry relative="1" as="geometry" />
        </mxCell>
        <mxCell id="beh4pt77fmSrPcNmpQ1O-1" value="操作流程&lt;br&gt;" style="rounded=1;whiteSpace=wrap;html=1;" vertex="1" parent="1">
          <mxGeometry x="130" y="190" width="100" height="50" as="geometry" />
        </mxCell>
        <mxCell id="beh4pt77fmSrPcNmpQ1O-6" value="元素" style="swimlane;fontStyle=0;childLayout=stackLayout;horizontal=1;startSize=30;horizontalStack=0;resizeParent=1;resizeParentMax=0;resizeLast=0;collapsible=1;marginBottom=0;" vertex="1" parent="1">
          <mxGeometry x="110" y="270" width="140" height="90" as="geometry" />
        </mxCell>
        <mxCell id="beh4pt77fmSrPcNmpQ1O-7" value="操作名称" style="text;strokeColor=none;fillColor=none;align=left;verticalAlign=middle;spacingLeft=4;spacingRight=4;overflow=hidden;points=[[0,0.5],[1,0.5]];portConstraint=eastwest;rotatable=0;" vertex="1" parent="beh4pt77fmSrPcNmpQ1O-6">
          <mxGeometry y="30" width="140" height="30" as="geometry" />
        </mxCell>
        <mxCell id="beh4pt77fmSrPcNmpQ1O-8" value="操作顺序" style="text;strokeColor=none;fillColor=none;align=left;verticalAlign=middle;spacingLeft=4;spacingRight=4;overflow=hidden;points=[[0,0.5],[1,0.5]];portConstraint=eastwest;rotatable=0;" vertex="1" parent="beh4pt77fmSrPcNmpQ1O-6">
          <mxGeometry y="60" width="140" height="30" as="geometry" />
        </mxCell>
        <mxCell id="beh4pt77fmSrPcNmpQ1O-12" style="edgeStyle=orthogonalEdgeStyle;rounded=0;orthogonalLoop=1;jettySize=auto;html=1;entryX=0.5;entryY=0;entryDx=0;entryDy=0;" edge="1" parent="1" source="beh4pt77fmSrPcNmpQ1O-13" target="beh4pt77fmSrPcNmpQ1O-14">
          <mxGeometry relative="1" as="geometry" />
        </mxCell>
        <mxCell id="beh4pt77fmSrPcNmpQ1O-13" value="&lt;font&gt;实体模型&lt;/font&gt;" style="rounded=1;whiteSpace=wrap;html=1;" vertex="1" parent="1">
          <mxGeometry x="294" y="190" width="100" height="50" as="geometry" />
        </mxCell>
        <mxCell id="beh4pt77fmSrPcNmpQ1O-22" value="" style="whiteSpace=wrap;html=1;aspect=fixed;" vertex="1" parent="1">
          <mxGeometry x="440" y="270" width="210" height="210" as="geometry" />
        </mxCell>
        <mxCell id="beh4pt77fmSrPcNmpQ1O-14" value="元素" style="swimlane;fontStyle=0;childLayout=stackLayout;horizontal=1;startSize=30;horizontalStack=0;resizeParent=1;resizeParentMax=0;resizeLast=0;collapsible=1;marginBottom=0;" vertex="1" parent="1">
          <mxGeometry x="274" y="270" width="140" height="90" as="geometry">
            <mxRectangle x="274" y="270" width="60" height="30" as="alternateBounds" />
          </mxGeometry>
        </mxCell>
        <mxCell id="beh4pt77fmSrPcNmpQ1O-15" value="模型名称" style="text;strokeColor=none;fillColor=none;align=left;verticalAlign=middle;spacingLeft=4;spacingRight=4;overflow=hidden;points=[[0,0.5],[1,0.5]];portConstraint=eastwest;rotatable=0;" vertex="1" parent="beh4pt77fmSrPcNmpQ1O-14">
          <mxGeometry y="30" width="140" height="30" as="geometry" />
        </mxCell>
        <mxCell id="beh4pt77fmSrPcNmpQ1O-16" value="实体模型" style="text;strokeColor=none;fillColor=none;align=left;verticalAlign=middle;spacingLeft=4;spacingRight=4;overflow=hidden;points=[[0,0.5],[1,0.5]];portConstraint=eastwest;rotatable=0;" vertex="1" parent="beh4pt77fmSrPcNmpQ1O-14">
          <mxGeometry y="60" width="140" height="30" as="geometry" />
        </mxCell>
        <mxCell id="beh4pt77fmSrPcNmpQ1O-17" style="edgeStyle=orthogonalEdgeStyle;rounded=0;orthogonalLoop=1;jettySize=auto;html=1;entryX=0.5;entryY=0;entryDx=0;entryDy=0;" edge="1" parent="1" source="beh4pt77fmSrPcNmpQ1O-18" target="beh4pt77fmSrPcNmpQ1O-19">
          <mxGeometry relative="1" as="geometry" />
        </mxCell>
        <mxCell id="beh4pt77fmSrPcNmpQ1O-18" value="&lt;font&gt;实体模型组&lt;/font&gt;" style="rounded=1;whiteSpace=wrap;html=1;" vertex="1" parent="1">
          <mxGeometry x="495" y="280" width="100" height="50" as="geometry" />
        </mxCell>
        <mxCell id="beh4pt77fmSrPcNmpQ1O-19" value="元素" style="swimlane;fontStyle=0;childLayout=stackLayout;horizontal=1;startSize=30;horizontalStack=0;resizeParent=1;resizeParentMax=0;resizeLast=0;collapsible=1;marginBottom=0;" vertex="1" parent="1">
          <mxGeometry x="475" y="350" width="140" height="110" as="geometry">
            <mxRectangle x="475" y="340" width="60" height="30" as="alternateBounds" />
          </mxGeometry>
        </mxCell>
        <object label="实体模型01" id="beh4pt77fmSrPcNmpQ1O-27">
          <mxCell style="text;strokeColor=none;fillColor=none;align=left;verticalAlign=middle;spacingLeft=4;spacingRight=4;overflow=hidden;points=[[0,0.5],[1,0.5]];portConstraint=eastwest;rotatable=0;container=0;" vertex="1" parent="beh4pt77fmSrPcNmpQ1O-19">
            <mxGeometry y="30" width="140" height="40" as="geometry" />
          </mxCell>
        </object>
        <object label="实体模型02" id="beh4pt77fmSrPcNmpQ1O-21">
          <mxCell style="text;strokeColor=none;fillColor=none;align=left;verticalAlign=middle;spacingLeft=4;spacingRight=4;overflow=hidden;points=[[0,0.5],[1,0.5]];portConstraint=eastwest;rotatable=0;container=0;" vertex="1" parent="beh4pt77fmSrPcNmpQ1O-19">
            <mxGeometry y="70" width="140" height="40" as="geometry" />
          </mxCell>
        </object>
        <mxCell id="beh4pt77fmSrPcNmpQ1O-29" style="edgeStyle=orthogonalEdgeStyle;rounded=0;orthogonalLoop=1;jettySize=auto;html=1;exitX=0.5;exitY=1;exitDx=0;exitDy=0;entryX=0.5;entryY=0;entryDx=0;entryDy=0;" edge="1" parent="1" source="beh4pt77fmSrPcNmpQ1O-23" target="beh4pt77fmSrPcNmpQ1O-22">
          <mxGeometry relative="1" as="geometry" />
        </mxCell>
        <mxCell id="beh4pt77fmSrPcNmpQ1O-23" value="&lt;font&gt;实体模型&lt;/font&gt;" style="rounded=1;whiteSpace=wrap;html=1;" vertex="1" parent="1">
          <mxGeometry x="495" y="190" width="100" height="50" as="geometry" />
        </mxCell>
        <mxCell id="beh4pt77fmSrPcNmpQ1O-38" value="Classname" style="swimlane;fontStyle=0;childLayout=stackLayout;horizontal=1;startSize=26;fillColor=none;horizontalStack=0;resizeParent=1;resizeParentMax=0;resizeLast=0;collapsible=1;marginBottom=0;" vertex="1" parent="1">
          <mxGeometry x="250" y="560" width="140" height="104" as="geometry" />
        </mxCell>
        <mxCell id="beh4pt77fmSrPcNmpQ1O-39" value="string：操作名称" style="text;strokeColor=none;fillColor=none;align=left;verticalAlign=top;spacingLeft=4;spacingRight=4;overflow=hidden;rotatable=0;points=[[0,0.5],[1,0.5]];portConstraint=eastwest;" vertex="1" parent="beh4pt77fmSrPcNmpQ1O-38">
          <mxGeometry y="26" width="140" height="26" as="geometry" />
        </mxCell>
        <mxCell id="beh4pt77fmSrPcNmpQ1O-40" value="string：操作顺序" style="text;strokeColor=none;fillColor=none;align=left;verticalAlign=top;spacingLeft=4;spacingRight=4;overflow=hidden;rotatable=0;points=[[0,0.5],[1,0.5]];portConstraint=eastwest;" vertex="1" parent="beh4pt77fmSrPcNmpQ1O-38">
          <mxGeometry y="52" width="140" height="26" as="geometry" />
        </mxCell>
        <mxCell id="beh4pt77fmSrPcNmpQ1O-41" value="+ field: type" style="text;strokeColor=none;fillColor=none;align=left;verticalAlign=top;spacingLeft=4;spacingRight=4;overflow=hidden;rotatable=0;points=[[0,0.5],[1,0.5]];portConstraint=eastwest;" vertex="1" parent="beh4pt77fmSrPcNmpQ1O-38">
          <mxGeometry y="78" width="140" height="26" as="geometry" />
        </mxCell>
      </root>
    </mxGraphModel>
  </diagram>
</mxfile>
